<?xml version="1.0" encoding="UTF-8" standalone="no"?><!DOCTYPE svg PUBLIC "-//W3C//DTD SVG 1.1//EN" "http://www.w3.org/Graphics/SVG/1.1/DTD/svg11.dtd"><svg width="100%" height="100%" viewBox="0 0 16 16" version="1.1" xmlns="http://www.w3.org/2000/svg" xmlns:xlink="http://www.w3.org/1999/xlink" xml:space="preserve" xmlns:serif="http://www.serif.com/" style="fill-rule:evenodd;clip-rule:evenodd;stroke-linejoin:round;stroke-miterlimit:2;"><rect id="favicon_pixel_aligned_vector_color" x="0" y="0" width="16" height="16" style="fill:none;"/><path d="M16,1.6c0,-0.883 -0.717,-1.6 -1.6,-1.6l-12.8,0c-0.883,0 -1.6,0.717 -1.6,1.6l0,12.8c0,0.883 0.717,1.6 1.6,1.6l12.8,0c0.883,0 1.6,-0.717 1.6,-1.6l0,-12.8Z" style="fill:#f5faff;"/><g id="Logo"><path d="M5,9.201c-0,0.217 -0.072,0.406 -0.217,0.565c-0.146,0.156 -0.319,0.234 -0.517,0.234l-3.266,0l-0,-1l3,-0l0,-1l-2.5,-0c-0.14,-0 -0.252,-0.114 -0.351,-0.223c-0.1,-0.109 -0.149,-0.241 -0.149,-0.394l-0,-1.577c-0,-0.216 0.071,-0.404 0.213,-0.564c0.147,-0.162 0.318,-0.242 0.515,-0.242l3.272,0l-0,1l-3,0l0,1l2.5,0c0.138,0 0.247,0.119 0.348,0.23c0.101,0.111 0.152,0.243 0.152,0.394l-0,1.577Z" style="fill:#00549f;fill-rule:nonzero;"/><path d="M7,10c-0.501,-0 -1,-0.498 -1,-1l0.001,-4l0.999,0l0,4l1,0l0,-2l1,0l-0,2l1,0l-0,-4l1,0l0,4.5c0,0.215 -0.308,0.5 -0.5,0.5" style="fill:#00549f;fill-rule:nonzero;"/><path d="M13,10c-0.458,0 -1,-0.445 -1,-1l0,-3c0,-0.485 0.521,-1 1,-1l2,-0l-0,1l-2,0l-0,3l2,0l-0,1l-2,0Z" style="fill:#8ebae5;fill-rule:nonzero;"/></g></svg>